<?xml version="1.0" encoding="UTF-8" standalone="no"?>
<!-- Created with Inkscape (http://www.inkscape.org/) -->

<svg
   version="1.1"
   id="svg2"
   xml:space="preserve"
   width="98.773331"
   height="127.72"
   viewBox="0 0 98.773331 127.72"
   xmlns="http://www.w3.org/2000/svg"
   xmlns:svg="http://www.w3.org/2000/svg"><defs
     id="defs6" /><g
     id="g8"
     transform="matrix(1.3333333,0,0,-1.3333333,0,127.72)"><g
       id="g10"
       transform="scale(0.1)"><path
         d="m 592.496,834.426 c -48.808,44.668 -103.203,76.297 -163.164,94.91 -55.852,19.023 -131.961,28.547 -228.309,28.547 H 0.03125 V 628.484 H 118.574 c 56.836,0 101.707,-5.613 134.656,-16.832 35.375,-10.988 67.446,-29.64 96.235,-55.988 C 407.75,502.48 436.91,432.578 436.91,345.996 436.91,259.141 406.547,188.887 345.793,135.234 315.305,108.379 283.359,89.7188 249.934,79.2383 218.723,68.75 174.441,63.5078 117.109,63.5078 H 51.6914 c 25.3008,0 44.8438,2.3125 58.6286,6.9414 14.77,4.6289 28.84,12.8633 42.325,24.7071 26.796,23.6917 40.187,54.6987 40.187,93.0277 0,38.222 -12.844,69.074 -38.594,92.539 -12.683,11.64 -26.843,19.863 -42.468,24.707 -14.5356,4.961 -34.3403,7.441 -59.4184,7.441 H 0 V 63.5078 H 0.03125 V 0 H 198.535 c 97.195,0 172.25,8.88672 225.211,26.6797 56.66,17.7617 110.84,49.3945 162.539,94.9143 102.969,90.972 154.473,210.086 154.473,357.351 0,146.797 -49.434,265.293 -148.262,355.481"
         style="fill:#a8e1d4;fill-opacity:1;fill-rule:nonzero;stroke:none"
         id="path12" /></g></g></svg>
